<?xml version="1.0" encoding="UTF-8"?>
<svg xmlns="http://www.w3.org/2000/svg" xmlns:xlink="http://www.w3.org/1999/xlink" width="32px" height="32px" viewBox="0 0 32 32" version="1.1">
<defs>
<filter id="alpha" filterUnits="objectBoundingBox" x="0%" y="0%" width="100%" height="100%">
  <feColorMatrix type="matrix" in="SourceGraphic" values="0 0 0 0 1 0 0 0 0 1 0 0 0 0 1 0 0 0 1 0"/>
</filter>
<mask id="mask0">
  <g filter="url(#alpha)">
<rect x="0" y="0" width="32" height="32" style="fill:rgb(0%,0%,0%);fill-opacity:0.886275;stroke:none;"/>
  </g>
</mask>
<clipPath id="clip1">
  <rect x="0" y="0" width="32" height="32"/>
</clipPath>
<g id="surface5" clip-path="url(#clip1)">
<path style=" stroke:none;fill-rule:evenodd;fill:rgb(0%,68.235294%,93.72549%);fill-opacity:1;" d="M 6.875 -0.125 C 15.207031 -0.125 23.542969 -0.125 31.875 -0.125 C 31.875 8.207031 31.875 16.542969 31.875 24.875 C 30.292969 24.875 28.707031 24.875 27.125 24.875 C 27.125 27.207031 27.125 29.542969 27.125 31.875 C 18.042969 31.875 8.957031 31.875 -0.125 31.875 C -0.125 22.792969 -0.125 13.707031 -0.125 4.625 C 2.207031 4.625 4.542969 4.625 6.875 4.625 C 6.875 3.042969 6.875 1.457031 6.875 -0.125 Z M 9.625 2.625 C 16.125 2.625 22.625 2.625 29.125 2.625 C 29.125 9.125 29.125 15.625 29.125 22.125 C 22.625 22.125 16.125 22.125 9.625 22.125 C 9.625 17.707031 9.625 13.292969 9.625 8.875 C 8.707031 8.875 7.792969 8.875 6.875 8.875 C 6.875 14.207031 6.875 19.542969 6.875 24.875 C 12.707031 24.875 18.542969 24.875 24.375 24.875 C 24.375 26.375 24.375 27.875 24.375 29.375 C 17.042969 29.417969 9.707031 29.375 2.375 29.25 C 2.625 21.976562 2.707031 14.683594 2.625 7.375 C 9.875 7.375 17.125 7.375 24.375 7.375 C 24.375 11.792969 24.375 16.207031 24.375 20.625 C 25.292969 20.625 26.207031 20.625 27.125 20.625 C 27.125 15.292969 27.125 9.957031 27.125 4.625 C 21.292969 4.625 15.457031 4.625 9.625 4.625 C 9.625 3.957031 9.625 3.292969 9.625 2.625 Z M 9.625 2.625 "/>
</g>
<mask id="mask1">
  <g filter="url(#alpha)">
<rect x="0" y="0" width="32" height="32" style="fill:rgb(0%,0%,0%);fill-opacity:0.729412;stroke:none;"/>
  </g>
</mask>
<clipPath id="clip2">
  <rect x="0" y="0" width="32" height="32"/>
</clipPath>
<g id="surface8" clip-path="url(#clip2)">
<path style=" stroke:none;fill-rule:evenodd;fill:rgb(0%,68.235294%,93.72549%);fill-opacity:1;" d="M 20.625 10.375 C 20.875 10.375 21.125 10.375 21.375 10.375 C 20.414062 13.96875 19.414062 17.550781 18.375 21.125 C 18.082031 21.179688 17.832031 21.097656 17.625 20.875 C 17.867188 18.636719 17.953125 16.386719 17.875 14.125 C 15.453125 14.207031 13.035156 14.125 10.625 13.875 C 10.667969 13.792969 10.707031 13.707031 10.75 13.625 C 14.054688 12.507812 17.347656 11.425781 20.625 10.375 Z M 20.625 10.375 "/>
</g>
</defs>
<g id="surface1">
<use xlink:href="#surface5" mask="url(#mask0)"/>
<use xlink:href="#surface8" mask="url(#mask1)"/>
</g>
</svg>
